# Blender v2.79 (sub 0) OBJ File: ''
# www.blender.org
mtllib Arrow.mtl
o Cylinder_Cylinder.001
v 0.000000 0.003887 0.041694
v 0.000000 2.003887 0.041694
v -0.008134 0.003887 0.040893
v -0.008134 2.003887 0.040893
v -0.015956 0.003887 0.038520
v -0.015956 2.003887 0.038520
v -0.023164 0.003887 0.034667
v -0.023164 2.003887 0.034667
v -0.029482 0.003887 0.029482
v -0.029482 2.003887 0.029482
v -0.034667 0.003887 0.023164
v -0.034667 2.003887 0.023164
v -0.038520 0.003887 0.015956
v -0.038520 2.003887 0.015956
v -0.040893 0.003887 0.008134
v -0.040893 2.003887 0.008134
v -0.041694 0.003887 0.000000
v -0.041694 2.003887 0.000000
v -0.040893 0.003887 -0.008134
v -0.040893 2.003887 -0.008134
v -0.038520 0.003887 -0.015956
v -0.038520 2.003887 -0.015956
v -0.034667 0.003887 -0.023164
v -0.034667 2.003887 -0.023164
v -0.029482 0.003887 -0.029482
v -0.029482 2.003887 -0.029482
v -0.023164 0.003887 -0.034667
v -0.023164 2.003887 -0.034667
v -0.015956 0.003887 -0.038520
v -0.015956 2.003887 -0.038520
v -0.008134 0.003887 -0.040893
v -0.008134 2.003887 -0.040893
v 0.000000 0.003887 -0.041694
v 0.000000 2.003887 -0.041694
v 0.008134 0.003887 -0.040893
v 0.008134 2.003887 -0.040893
v 0.015956 0.003887 -0.038520
v 0.015956 2.003887 -0.038520
v 0.023164 0.003887 -0.034667
v 0.023164 2.003887 -0.034667
v 0.029482 0.003887 -0.029482
v 0.029482 2.003887 -0.029482
v 0.034667 0.003887 -0.023164
v 0.034667 2.003887 -0.023164
v 0.038520 0.003887 -0.015956
v 0.038520 2.003887 -0.015956
v 0.040893 0.003887 -0.008134
v 0.040893 2.003887 -0.008134
v 0.041694 0.003887 0.000000
v 0.041694 2.003887 0.000000
v 0.040893 0.003887 0.008134
v 0.040893 2.003887 0.008134
v 0.038520 0.003887 0.015956
v 0.038520 2.003887 0.015956
v 0.034667 0.003887 0.023164
v 0.034667 2.003887 0.023164
v 0.029482 0.003887 0.029482
v 0.029482 2.003887 0.029482
v 0.023164 0.003887 0.034667
v 0.023164 2.003887 0.034667
v 0.015956 0.003887 0.038520
v 0.015956 2.003887 0.038520
v 0.008134 0.003887 0.040893
v 0.008134 2.003887 0.040893
v 0.000000 1.859113 -0.173164
v 0.000000 2.205440 0.000000
v 0.033783 1.859113 -0.169836
v 0.066267 1.859113 -0.159982
v 0.096205 1.859113 -0.143980
v 0.122445 1.859113 -0.122445
v 0.143980 1.859113 -0.096205
v 0.159982 1.859113 -0.066267
v 0.169836 1.859113 -0.033783
v 0.173164 1.859113 -0.000000
v 0.169836 1.859113 0.033783
v 0.159982 1.859113 0.066267
v 0.143980 1.859113 0.096205
v 0.122445 1.859113 0.122445
v 0.096205 1.859113 0.143980
v 0.066267 1.859113 0.159982
v 0.033783 1.859113 0.169836
v -0.000000 1.859113 0.173164
v -0.033783 1.859113 0.169836
v -0.066267 1.859113 0.159982
v -0.096205 1.859113 0.143980
v -0.122445 1.859113 0.122445
v -0.143980 1.859113 0.096205
v -0.159982 1.859113 0.066267
v -0.169836 1.859113 0.033782
v -0.173164 1.859113 -0.000000
v -0.169836 1.859113 -0.033783
v -0.159982 1.859113 -0.066267
v -0.143980 1.859113 -0.096205
v -0.122445 1.859113 -0.122445
v -0.096204 1.859113 -0.143980
v -0.066267 1.859113 -0.159983
v -0.033782 1.859113 -0.169836
vn 0.0000 -0.6857 0.7279
vn 0.0000 0.6857 0.7279
vn -0.1420 0.6857 0.7139
vn -0.1420 -0.6857 0.7139
vn -0.2785 0.6857 0.6725
vn -0.2785 -0.6857 0.6725
vn -0.4044 0.6857 0.6052
vn -0.4044 -0.6857 0.6052
vn -0.5147 0.6857 0.5147
vn -0.5147 -0.6857 0.5147
vn -0.6052 0.6857 0.4044
vn -0.6052 -0.6857 0.4044
vn -0.6725 0.6857 0.2785
vn -0.6725 -0.6857 0.2785
vn -0.7139 0.6857 0.1420
vn -0.7139 -0.6857 0.1420
vn -0.7279 0.6857 0.0000
vn -0.7279 -0.6857 0.0000
vn -0.7139 0.6857 -0.1420
vn -0.7139 -0.6857 -0.1420
vn -0.6725 0.6857 -0.2785
vn -0.6725 -0.6857 -0.2785
vn -0.6052 0.6857 -0.4044
vn -0.6052 -0.6857 -0.4044
vn -0.5147 0.6857 -0.5147
vn -0.5147 -0.6857 -0.5147
vn -0.4044 0.6857 -0.6052
vn -0.4044 -0.6857 -0.6052
vn -0.2785 0.6857 -0.6725
vn -0.2785 -0.6857 -0.6725
vn -0.1420 0.6857 -0.7139
vn -0.1420 -0.6857 -0.7139
vn 0.0000 0.6857 -0.7279
vn 0.0000 -0.6857 -0.7279
vn 0.1420 0.6857 -0.7139
vn 0.1420 -0.6857 -0.7139
vn 0.2785 0.6857 -0.6725
vn 0.2785 -0.6857 -0.6725
vn 0.4044 0.6857 -0.6052
vn 0.4044 -0.6857 -0.6052
vn 0.5147 0.6857 -0.5147
vn 0.5147 -0.6857 -0.5147
vn 0.6052 0.6857 -0.4044
vn 0.6052 -0.6857 -0.4044
vn 0.6725 0.6857 -0.2785
vn 0.6725 -0.6857 -0.2785
vn 0.7139 0.6857 -0.1420
vn 0.7139 -0.6857 -0.1420
vn 0.7279 0.6857 0.0000
vn 0.7279 -0.6857 0.0000
vn 0.7139 0.6857 0.1420
vn 0.7139 -0.6857 0.1420
vn 0.6725 0.6857 0.2785
vn 0.6725 -0.6857 0.2785
vn 0.6052 0.6857 0.4044
vn 0.6052 -0.6857 0.4044
vn 0.5147 0.6857 0.5147
vn 0.5147 -0.6857 0.5147
vn 0.4044 0.6857 0.6052
vn 0.4044 -0.6857 0.6052
vn 0.2785 0.6857 0.6725
vn 0.2785 -0.6857 0.6725
vn 0.1420 0.6857 0.7139
vn 0.1420 -0.6857 0.7139
vn 0.0000 -0.5033 -0.8641
vn 0.0000 1.0000 0.0000
vn 0.1686 -0.5033 -0.8475
vn 0.3307 -0.5033 -0.7983
vn 0.4801 -0.5033 -0.7185
vn 0.6110 -0.5033 -0.6110
vn 0.7185 -0.5033 -0.4801
vn 0.7983 -0.5033 -0.3307
vn 0.8475 -0.5033 -0.1686
vn 0.8641 -0.5033 0.0000
vn 0.8475 -0.5033 0.1686
vn 0.7983 -0.5033 0.3307
vn 0.7185 -0.5033 0.4801
vn 0.6110 -0.5033 0.6110
vn 0.4801 -0.5033 0.7185
vn 0.3307 -0.5033 0.7983
vn 0.1686 -0.5033 0.8475
vn 0.0000 -0.5033 0.8641
vn -0.1686 -0.5033 0.8475
vn -0.3307 -0.5033 0.7983
vn -0.4801 -0.5033 0.7185
vn -0.6110 -0.5033 0.6110
vn -0.7185 -0.5033 0.4801
vn -0.7983 -0.5033 0.3307
vn -0.8475 -0.5033 0.1686
vn -0.8641 -0.5033 0.0000
vn -0.8475 -0.5033 -0.1686
vn -0.7983 -0.5033 -0.3307
vn -0.7185 -0.5033 -0.4801
vn -0.6110 -0.5033 -0.6110
vn -0.4801 -0.5033 -0.7185
vn -0.3307 -0.5033 -0.7983
vn -0.1686 -0.5033 -0.8475
usemtl None
s 1
f 1//1 2//2 4//3 3//4
f 3//4 4//3 6//5 5//6
f 5//6 6//5 8//7 7//8
f 7//8 8//7 10//9 9//10
f 9//10 10//9 12//11 11//12
f 11//12 12//11 14//13 13//14
f 13//14 14//13 16//15 15//16
f 15//16 16//15 18//17 17//18
f 17//18 18//17 20//19 19//20
f 19//20 20//19 22//21 21//22
f 21//22 22//21 24//23 23//24
f 23//24 24//23 26//25 25//26
f 25//26 26//25 28//27 27//28
f 27//28 28//27 30//29 29//30
f 29//30 30//29 32//31 31//32
f 31//32 32//31 34//33 33//34
f 33//34 34//33 36//35 35//36
f 35//36 36//35 38//37 37//38
f 37//38 38//37 40//39 39//40
f 39//40 40//39 42//41 41//42
f 41//42 42//41 44//43 43//44
f 43//44 44//43 46//45 45//46
f 45//46 46//45 48//47 47//48
f 47//48 48//47 50//49 49//50
f 49//50 50//49 52//51 51//52
f 51//52 52//51 54//53 53//54
f 53//54 54//53 56//55 55//56
f 55//56 56//55 58//57 57//58
f 57//58 58//57 60//59 59//60
f 59//60 60//59 62//61 61//62
f 4//3 2//2 64//63 62//61 60//59 58//57 56//55 54//53 52//51 50//49 48//47 46//45 44//43 42//41 40//39 38//37 36//35 34//33 32//31 30//29 28//27 26//25 24//23 22//21 20//19 18//17 16//15 14//13 12//11 10//9 8//7 6//5
f 61//62 62//61 64//63 63//64
f 63//64 64//63 2//2 1//1
f 1//1 3//4 5//6 7//8 9//10 11//12 13//14 15//16 17//18 19//20 21//22 23//24 25//26 27//28 29//30 31//32 33//34 35//36 37//38 39//40 41//42 43//44 45//46 47//48 49//50 51//52 53//54 55//56 57//58 59//60 61//62 63//64
f 65//65 66//66 67//67
f 67//67 66//66 68//68
f 68//68 66//66 69//69
f 69//69 66//66 70//70
f 70//70 66//66 71//71
f 71//71 66//66 72//72
f 72//72 66//66 73//73
f 73//73 66//66 74//74
f 74//74 66//66 75//75
f 75//75 66//66 76//76
f 76//76 66//66 77//77
f 77//77 66//66 78//78
f 78//78 66//66 79//79
f 79//79 66//66 80//80
f 80//80 66//66 81//81
f 81//81 66//66 82//82
f 82//82 66//66 83//83
f 83//83 66//66 84//84
f 84//84 66//66 85//85
f 85//85 66//66 86//86
f 86//86 66//66 87//87
f 87//87 66//66 88//88
f 88//88 66//66 89//89
f 89//89 66//66 90//90
f 90//90 66//66 91//91
f 91//91 66//66 92//92
f 92//92 66//66 93//93
f 93//93 66//66 94//94
f 94//94 66//66 95//95
f 95//95 66//66 96//96
f 96//96 66//66 97//97
f 97//97 66//66 65//65
f 65//65 67//67 68//68 69//69 70//70 71//71 72//72 73//73 74//74 75//75 76//76 77//77 78//78 79//79 80//80 81//81 82//82 83//83 84//84 85//85 86//86 87//87 88//88 89//89 90//90 91//91 92//92 93//93 94//94 95//95 96//96 97//97
